<?xml version="1.0" encoding="UTF-8"?>
<svg version="1.1" xmlns="http://www.w3.org/2000/svg" width="512" height="512">
<path d="M0 0 C-3.22363487 5.07483113 -6.89761512 9.64020754 -10.75 14.25 C-12.01483167 15.77431758 -13.27915839 17.2990543 -14.54296875 18.82421875 C-15.44668213 19.91355713 -15.44668213 19.91355713 -16.36865234 21.02490234 C-18.91157866 24.10366228 -21.39752854 27.22629125 -23.8828125 30.3515625 C-31.06136758 39.33137863 -38.35565966 48.21977429 -45.640625 57.11328125 C-48.51706613 60.63263555 -51.38424565 64.15944174 -54.25 67.6875 C-54.79591797 68.35958496 -55.34183594 69.03166992 -55.90429688 69.72412109 C-58.78598944 73.27243624 -61.66668805 76.82155642 -64.546875 80.37109375 C-65.1253418 81.08370361 -65.70380859 81.79631348 -66.29980469 82.53051758 C-67.39975151 83.88554971 -68.49938217 85.24083858 -69.59863281 86.59643555 C-70.59729958 87.82655915 -71.60489823 89.04949823 -72.62231445 90.26416016 C-74.02342475 91.95692948 -74.02342475 91.95692948 -75.08666992 93.77880859 C-76.16796875 95.4375 -76.16796875 95.4375 -79 98 C-82.79900445 98.72257503 -86.4635997 98.56707564 -90.3125 98.375 C-91.33923828 98.34792969 -92.36597656 98.32085937 -93.42382812 98.29296875 C-95.95137576 98.22243254 -98.47460043 98.12393429 -101 98 C-99.68624618 94.19807605 -98.12513458 91.73246361 -95.375 88.8125 C-91.85267765 84.96882087 -88.56229767 81.0169687 -85.328125 76.9296875 C-82.43244274 73.28579204 -79.49929648 69.67328769 -76.5625 66.0625 C-75.71425659 65.01920532 -75.71425659 65.01920532 -74.84887695 63.95483398 C-71.02811615 59.25801035 -67.19605414 54.57054785 -63.359375 49.88671875 C-59.35997544 44.99341366 -55.37788888 40.08605342 -51.39453125 35.1796875 C-49.16474895 32.43327175 -46.93296278 29.68850692 -44.69921875 26.9453125 C-44.16087402 26.28168701 -43.6225293 25.61806152 -43.06787109 24.93432617 C-41.9819544 23.60433027 -40.88719522 22.28150486 -39.78369141 20.96606445 C-37.02399349 17.64941231 -34.54827573 14.36139159 -32.32421875 10.66015625 C-24.08214418 -2.40372011 -14.5909044 -1.80810013 0 0 Z " fill="#545454" transform="translate(213,214)"/>
<path d="M0 0 C1.07443359 0.03158203 2.14886719 0.06316406 3.25585938 0.09570312 C5.90253569 0.17804417 8.54361094 0.29296443 11.1875 0.4375 C9.8560435 3.315918 8.35451678 5.62946251 6.31640625 8.0546875 C5.74768799 8.73692383 5.17896973 9.41916016 4.59301758 10.12207031 C3.98482178 10.84491211 3.37662598 11.56775391 2.75 12.3125 C-1.74862032 17.7106136 -6.19208673 23.13588617 -10.5 28.6875 C-14.51163685 33.84552903 -18.66146202 38.8621298 -22.90356445 43.83178711 C-26.21719815 47.71753343 -29.43217514 51.6674214 -32.60546875 55.66796875 C-35.38123442 59.1511862 -38.18953744 62.60725749 -41 66.0625 C-41.55034912 66.73966064 -42.10069824 67.41682129 -42.66772461 68.11450195 C-45.55045642 71.66039937 -48.43703836 75.20309869 -51.328125 78.7421875 C-51.90151611 79.44520996 -52.47490723 80.14823242 -53.06567383 80.87255859 C-54.15013549 82.20208124 -55.23581495 83.53061197 -56.32299805 84.85791016 C-56.82355713 85.4719873 -57.32411621 86.08606445 -57.83984375 86.71875 C-58.33967773 87.31880859 -58.83951172 87.91886719 -59.35449219 88.53710938 C-60.87347814 90.43302013 -60.87347814 90.43302013 -62.10644531 92.66601562 C-63.52086309 94.99286145 -64.71428901 96.69333298 -66.8125 98.4375 C-70.81799672 99.39914671 -74.59832121 99.19936859 -78.6875 98.9375 C-79.75742188 98.90140625 -80.82734375 98.8653125 -81.9296875 98.828125 C-84.5609998 98.73414956 -87.18487515 98.60295954 -89.8125 98.4375 C-88.49377483 95.5947672 -87.02084765 93.29121083 -85.01171875 90.890625 C-84.17411011 89.88286011 -84.17411011 89.88286011 -83.31958008 88.85473633 C-82.71911865 88.13954834 -82.11865723 87.42436035 -81.5 86.6875 C-80.22611852 85.15531694 -78.95269143 83.622756 -77.6796875 82.08984375 C-77.03354492 81.31366699 -76.38740234 80.53749023 -75.72167969 79.73779297 C-72.83462107 76.25929344 -69.97589532 72.75816474 -67.125 69.25 C-66.58979736 68.59185303 -66.05459473 67.93370605 -65.50317383 67.25561523 C-62.01738541 62.95645846 -58.58973072 58.61543599 -55.1875 54.25 C-51.22592544 49.1669687 -47.12845689 44.22578193 -42.93701172 39.33129883 C-39.14354867 34.88088614 -35.53625148 30.30190559 -31.95068359 25.68334961 C-28.29613311 20.99781055 -24.49816675 16.45057794 -20.60351562 11.96289062 C-17.95013563 8.91778333 -17.95013563 8.91778333 -15.79711914 5.51879883 C-12.09180758 -1.1955412 -7.0780395 -0.39346463 0 0 Z " fill="#00ACEE" transform="translate(244.8125,199.5625)"/>
<path d="M0 0 C1.07894531 0.02255859 2.15789062 0.04511719 3.26953125 0.06835938 C5.9310935 0.1272435 8.58984228 0.20942999 11.25 0.3125 C8.11209198 4.51960679 4.97682843 8.72182706 1.6875 12.8125 C1.01847656 13.64523437 0.34945312 14.47796875 -0.33984375 15.3359375 C-2.20263773 17.63650317 -4.07007421 19.93295577 -5.94140625 22.2265625 C-6.50722412 22.92072266 -7.07304199 23.61488281 -7.65600586 24.33007812 C-8.77116505 25.69722117 -9.88777822 27.06318 -11.00610352 28.42773438 C-11.53260498 29.07291016 -12.05910645 29.71808594 -12.6015625 30.3828125 C-13.13281738 31.02057617 -13.66407227 31.65833984 -14.21142578 32.31542969 C-15.80378007 34.29430321 -15.80378007 34.29430321 -17.06591797 36.56738281 C-18.4742789 38.88540638 -19.65787978 40.57796015 -21.75 42.3125 C-25.75590307 43.27245707 -29.53577244 43.07437172 -33.625 42.8125 C-34.69492188 42.77640625 -35.76484375 42.7403125 -36.8671875 42.703125 C-39.4984998 42.60914956 -42.12237515 42.47795954 -44.75 42.3125 C-43.43127483 39.4697672 -41.95834765 37.16621083 -39.94921875 34.765625 C-39.11076416 33.75677246 -39.11076416 33.75677246 -38.25537109 32.72753906 C-37.65547363 32.01307617 -37.05557617 31.29861328 -36.4375 30.5625 C-35.17268124 29.04207901 -33.90837092 27.52123494 -32.64453125 26 C-31.9995166 25.22527344 -31.35450195 24.45054687 -30.68994141 23.65234375 C-27.64247418 19.97666719 -24.63225921 16.27109115 -21.625 12.5625 C-21.09350342 11.90797852 -20.56200684 11.25345703 -20.0144043 10.57910156 C-19.51207275 9.9600293 -19.00974121 9.34095703 -18.4921875 8.703125 C-18.00878906 8.12457764 -17.52539062 7.54603027 -17.02734375 6.94995117 C-15.57415966 5.17373262 -15.57415966 5.17373262 -14.1171875 2.37890625 C-10.06228981 -1.16076517 -5.1644127 -0.20344656 0 0 Z " fill="#545454" transform="translate(199.75,255.6875)"/>
<path d="M0 0 C1.61165039 0.04060547 1.61165039 0.04060547 3.25585938 0.08203125 C5.90179568 0.15258955 8.5436124 0.25111244 11.1875 0.375 C7.96385867 5.4498413 4.28984804 10.01515911 0.4375 14.625 C-0.81950121 16.14021798 -2.07601456 17.65584082 -3.33203125 19.171875 C-3.93354004 19.89697266 -4.53504883 20.62207031 -5.15478516 21.36914062 C-11.02442973 28.24141896 -11.02442973 28.24141896 -16.1706543 35.63647461 C-20.29672727 41.97092092 -20.29672727 41.97092092 -24.5324707 43.10009766 C-27.65021244 43.26021645 -30.63682254 43.16359669 -33.75 42.9375 C-35.34811523 42.8765918 -35.34811523 42.8765918 -36.97851562 42.81445312 C-39.59460872 42.70887089 -42.20113412 42.56145783 -44.8125 42.375 C-42.19789187 37.58466439 -38.80466421 33.5972079 -35.3125 29.4375 C-30.26278198 23.36956122 -25.29565748 17.25240051 -20.453125 11.01782227 C-19.24569286 9.46544353 -18.02920756 7.92011968 -16.8125 6.375 C-16.12929687 5.26253906 -15.44609375 4.15007812 -14.7421875 3.00390625 C-10.21911668 -1.05479596 -5.84922752 -0.27870479 0 0 Z " fill="#00ACED" transform="translate(201.8125,213.625)"/>
<path d="M0 0 C1.03125 0.02255859 2.0625 0.04511719 3.125 0.06835938 C5.66814065 0.12722837 8.20833113 0.20939935 10.75 0.3125 C9.24499231 5.0577007 6.60377759 8.15038647 3.375 11.8125 C2.40826463 12.92657204 1.44210965 14.04114799 0.4765625 15.15625 C0.00089844 15.68645752 -0.47476563 16.21666504 -0.96484375 16.76293945 C-2.43730565 18.44758873 -2.43730565 18.44758873 -3.8984375 21.19921875 C-7.83529342 24.73715738 -12.42335863 23.83437924 -17.5 23.625 C-18.53125 23.60244141 -19.5625 23.57988281 -20.625 23.55664062 C-23.16814065 23.49777163 -25.70833113 23.41560065 -28.25 23.3125 C-26.74499231 18.5672993 -24.10377759 15.47461353 -20.875 11.8125 C-19.90826463 10.69842796 -18.94210965 9.58385201 -17.9765625 8.46875 C-17.26306641 7.67343872 -17.26306641 7.67343872 -16.53515625 6.86206055 C-15.06269435 5.17741127 -15.06269435 5.17741127 -13.6015625 2.42578125 C-9.66470658 -1.11215738 -5.07664137 -0.20937924 0 0 Z " fill="#545454" transform="translate(232.25,254.6875)"/>
<path d="M0 0 C7.59 0 15.18 0 23 0 C21.55613852 2.88772296 20.44910721 4.87636563 18.50390625 7.3125 C18.02759766 7.91320312 17.55128906 8.51390625 17.06054688 9.1328125 C16.56619141 9.74898437 16.07183594 10.36515625 15.5625 11 C14.58427854 12.22888267 13.60640451 13.458042 12.62890625 14.6875 C12.19650635 15.22761719 11.76410645 15.76773438 11.31860352 16.32421875 C9.92158595 18.03148837 9.92158595 18.03148837 8.66845703 20.18261719 C7 22 7 22 4.5480957 22.45410156 C3.60023193 22.4331543 2.65236816 22.41220703 1.67578125 22.390625 C0.64775391 22.37773437 -0.38027344 22.36484375 -1.43945312 22.3515625 C-2.51130859 22.31804687 -3.58316406 22.28453125 -4.6875 22.25 C-5.77095703 22.23195313 -6.85441406 22.21390625 -7.97070312 22.1953125 C-10.64802146 22.14813508 -13.32356909 22.08232249 -16 22 C-13.43421638 17.36185268 -10.21458577 13.40170775 -6.875 9.3125 C-5.78742535 7.97659156 -4.70141095 6.63941094 -3.6171875 5.30078125 C-2.89958252 4.42160034 -2.89958252 4.42160034 -2.16748047 3.5246582 C-0.91655657 1.99036999 -0.91655657 1.99036999 0 0 Z " fill="#00ADEF" transform="translate(141,234)"/>
<path d="M0 0 C4.22999675 1.05749919 4.54930356 1.20032488 6.75 4.5625 C7.17796875 5.20316406 7.6059375 5.84382813 8.046875 6.50390625 C8.36140625 6.99761719 8.6759375 7.49132812 9 8 C9.33 5.36 9.66 2.72 10 0 C10.99 0 11.98 0 13 0 C13 4.62 13 9.24 13 14 C7.85139294 12.71284823 7.13538553 11.09341999 4 7 C3.67 9.31 3.34 11.62 3 14 C2.01 14 1.02 14 0 14 C0 9.38 0 4.76 0 0 Z " fill="#000000" transform="translate(349,260)"/>
<path d="M0 0 C4.22999675 1.05749919 4.54930356 1.20032488 6.75 4.5625 C7.17796875 5.20316406 7.6059375 5.84382813 8.046875 6.50390625 C8.36140625 6.99761719 8.6759375 7.49132812 9 8 C9.33 5.36 9.66 2.72 10 0 C10.99 0 11.98 0 13 0 C13 4.62 13 9.24 13 14 C7.85139294 12.71284823 7.13538553 11.09341999 4 7 C3.67 9.31 3.34 11.62 3 14 C2.01 14 1.02 14 0 14 C0 9.38 0 4.76 0 0 Z " fill="#000000" transform="translate(275,260)"/>
<path d="M0 0 C8.08573751 -0.60341325 8.08573751 -0.60341325 12.125 2.0625 C14 5 14 5 13.9375 8.6875 C13 12 13 12 11 14 C7.31975395 14.27629475 3.69505443 14.0859315 0 14 C0 9.38 0 4.76 0 0 Z M3 2 C3 5.3 3 8.6 3 12 C5.91652174 12.16681109 5.91652174 12.16681109 9 12 C9.66 11.34 10.32 10.68 11 10 C10.67673447 6.40320934 10.67673447 6.40320934 10 3 C7.69 2.67 5.38 2.34 3 2 Z " fill="#000000" transform="translate(291,260)"/>
<path d="M0 0 C0.66 0.99 1.32 1.98 2 3 C0 4 0 4 -2.4375 3.375 C-5.00135213 2.71549279 -5.00135213 2.71549279 -6.875 4.1875 C-8.17059512 5.93681833 -8.17059512 5.93681833 -8.0625 8.0625 C-7.07589421 10.34420999 -7.07589421 10.34420999 -3.9375 11.25 C-2.968125 11.4975 -1.99875 11.745 -1 12 C-1 10.35 -1 8.7 -1 7 C-0.01 7 0.98 7 2 7 C2 8.98 2 10.96 2 13 C-0.60614131 14.70401547 -1.89975932 15.00613718 -5.0625 14.8125 C-9.43877551 13.60204082 -9.43877551 13.60204082 -11 11 C-11.49573337 7.10495209 -11.58016848 4.90506283 -9.4375 1.5625 C-6.10812055 -0.57171759 -3.87532069 -0.50235639 0 0 Z " fill="#000000" transform="translate(375,260)"/>
<path d="M0 0 C1.258125 -0.04125 2.51625 -0.0825 3.8125 -0.125 C4.52019531 -0.14820313 5.22789062 -0.17140625 5.95703125 -0.1953125 C8 0 8 0 11 2 C11.1875 4.875 11.1875 4.875 11 8 C10.7018576 11.7763932 10.7018576 11.7763932 12 14 C10.68 14 9.36 14 8 14 C7.34 13.01 6.68 12.02 6 11 C3.94074861 10.27617533 3.94074861 10.27617533 2 10 C2 11.32 2 12.64 2 14 C1.34 14 0.68 14 0 14 C0 9.38 0 4.76 0 0 Z M2 2 C2 3.98 2 5.96 2 8 C5.465 7.505 5.465 7.505 9 7 C8.50243908 4.24358584 8.50243908 4.24358584 7 2 C5.33382885 1.95936168 3.66611905 1.957279 2 2 Z " fill="#000000" transform="translate(312,260)"/>
<path d="M0 0 C3 0.1875 3 0.1875 5 1.1875 C5 1.8475 5 2.5075 5 3.1875 C2.36 3.1875 -0.28 3.1875 -3 3.1875 C-3 3.8475 -3 4.5075 -3 5.1875 C-1.2984375 5.6515625 -1.2984375 5.6515625 0.4375 6.125 C4 7.1875 4 7.1875 5 8.1875 C5.04063832 9.85367115 5.042721 11.52138095 5 13.1875 C2.24075815 14.99161967 1.11027897 15.2002245 -2.25 14.8125 C-3.61125 14.503125 -3.61125 14.503125 -5 14.1875 C-5 13.1975 -5 12.2075 -5 11.1875 C-2.69 11.1875 -0.38 11.1875 2 11.1875 C-0.22189824 8.96560176 -2.08482708 8.26151108 -5 7.1875 C-5.125 4.8125 -5.125 4.8125 -5 2.1875 C-3 0.1875 -3 0.1875 0 0 Z " fill="#000000" transform="translate(336,259.8125)"/>
<path d="M0 0 C0.66 0 1.32 0 2 0 C2.66 3.63 3.32 7.26 4 11 C5.65 10.67 7.3 10.34 9 10 C9.33 6.7 9.66 3.4 10 0 C10.66 0 11.32 0 12 0 C12.10807131 1.93627769 12.1856225 3.87427756 12.25 5.8125 C12.29640625 6.89144531 12.3428125 7.97039062 12.390625 9.08203125 C12 12 12 12 10.1796875 13.89453125 C7.09128562 15.46087127 5.25704162 14.99127354 2 14 C-0.28062828 10.57905758 -0.21925007 9.31812778 -0.125 5.3125 C-0.10695313 4.31863281 -0.08890625 3.32476562 -0.0703125 2.30078125 C-0.04710937 1.54152344 -0.02390625 0.78226562 0 0 Z " fill="#000000" transform="translate(260,260)"/>
<path d="M0 0 C0.66 0 1.32 0 2 0 C2.99 1.98 3.98 3.96 5 6 C5.61875 5.01 6.2375 4.02 6.875 3 C7.57625 2.01 8.2775 1.02 9 0 C9.66 0 10.32 0 11 0 C11 3.63 11 7.26 11 11 C10.34 11 9.68 11 9 11 C8.67 10.01 8.34 9.02 8 8 C6.02 8.99 6.02 8.99 4 10 C3.67 9.34 3.34 8.68 3 8 C2.67 8.99 2.34 9.98 2 11 C1.34 11 0.68 11 0 11 C0 7.37 0 3.74 0 0 Z " fill="#000000" transform="translate(331,279)"/>
<path d="M0 0 C3.3 0 6.6 0 10 0 C10 0.66 10 1.32 10 2 C7.69 2 5.38 2 3 2 C3 3.65 3 5.3 3 7 C5.31 7 7.62 7 10 7 C10 7.66 10 8.32 10 9 C7.69 9 5.38 9 3 9 C3 10.65 3 12.3 3 14 C2.01 14 1.02 14 0 14 C0 9.38 0 4.76 0 0 Z " fill="#000000" transform="translate(248,260)"/>
<path d="M0 0 C3.76687864 1.88343932 4.79421646 2.69132469 7 6 C7.33 4.02 7.66 2.04 8 0 C8.66 0 9.32 0 10 0 C10 3.63 10 7.26 10 11 C5.70574125 9.92643531 5.25259529 9.4915227 3 6 C2.67 7.65 2.34 9.3 2 11 C1.34 11 0.68 11 0 11 C0 7.37 0 3.74 0 0 Z " fill="#000000" transform="translate(357,279)"/>
<path d="M0 0 C3.76687864 1.88343932 4.79421646 2.69132469 7 6 C7.33 4.02 7.66 2.04 8 0 C8.66 0 9.32 0 10 0 C10 3.63 10 7.26 10 11 C5.70574125 9.92643531 5.25259529 9.4915227 3 6 C2.67 7.65 2.34 9.3 2 11 C1.34 11 0.68 11 0 11 C0 7.37 0 3.74 0 0 Z " fill="#000000" transform="translate(235,279)"/>
<path d="M0 0 C3.39914975 1.13304992 4.05254451 2.12518475 6 5 C6.33 3.35 6.66 1.7 7 0 C7.66 0 8.32 0 9 0 C9 3.63 9 7.26 9 11 C5 9 5 9 3 6 C2.67 7.65 2.34 9.3 2 11 C1.34 11 0.68 11 0 11 C0 7.37 0 3.74 0 0 Z " fill="#000000" transform="translate(210,279)"/>
<path d="M0 0 C0.66 0 1.32 0 2 0 C3.38938077 1.96147874 4.7260411 3.96166576 6 6 C6.33 4.02 6.66 2.04 7 0 C7.66 0 8.32 0 9 0 C9 3.63 9 7.26 9 11 C8.01 11 7.02 11 6 11 C4.3125 9 4.3125 9 3 7 C2.67 8.32 2.34 9.64 2 11 C1.34 11 0.68 11 0 11 C0 7.37 0 3.74 0 0 Z " fill="#000000" transform="translate(284,279)"/>
<path d="M0 0 C3 1 3 1 4.16796875 2.77734375 C4.50441406 3.49019531 4.84085938 4.20304687 5.1875 4.9375 C5.53167969 5.64777344 5.87585938 6.35804688 6.23046875 7.08984375 C7 9 7 9 7 11 C5.01432292 10.70703125 3.02864583 10.4140625 1.04296875 10.12109375 C-1.2025342 9.86095201 -1.2025342 9.86095201 -4 11 C-3.52269162 9.5410574 -3.04308958 8.08286504 -2.5625 6.625 C-2.29566406 5.81289063 -2.02882812 5.00078125 -1.75390625 4.1640625 C-1 2 -1 2 0 0 Z M1 4 C0.67 4.99 0.34 5.98 0 7 C0.99 6.67 1.98 6.34 3 6 C2.34 5.34 1.68 4.68 1 4 Z " fill="#000000" transform="translate(226,279)"/>
<path d="M0 0 C2.6875 0.3125 2.6875 0.3125 5 1 C5 1.66 5 2.32 5 3 C3.68 3 2.36 3 1 3 C0.67 3.66 0.34 4.32 0 5 C1.65 5.33 3.3 5.66 5 6 C5.33 7.32 5.66 8.64 6 10 C3 12 3 12 0.375 11.75 C-0.40875 11.5025 -1.1925 11.255 -2 11 C-2.33 10.34 -2.66 9.68 -3 9 C-2.195625 9.020625 -1.39125 9.04125 -0.5625 9.0625 C1.93354885 9.29633621 1.93354885 9.29633621 3 8 C2.195625 7.731875 1.39125 7.46375 0.5625 7.1875 C-0.283125 6.795625 -1.12875 6.40375 -2 6 C-2.33 5.01 -2.66 4.02 -3 3 C-1.8125 1.4375 -1.8125 1.4375 0 0 Z " fill="#000000" transform="translate(322,279)"/>
<path d="M0 0 C2.64 0 5.28 0 8 0 C8 0.66 8 1.32 8 2 C6.02 2 4.04 2 2 2 C2 2.99 2 3.98 2 5 C3.65 5 5.3 5 7 5 C7 5.66 7 6.32 7 7 C5.35 7 3.7 7 2 7 C2 7.99 2 8.98 2 10 C3.98 10 5.96 10 8 10 C8 10.33 8 10.66 8 11 C5.36 11 2.72 11 0 11 C0 7.37 0 3.74 0 0 Z " fill="#000000" transform="translate(346,279)"/>
<path d="M0 0 C2.64 0 5.28 0 8 0 C8 0.66 8 1.32 8 2 C6.02 2 4.04 2 2 2 C2 2.99 2 3.98 2 5 C3.65 5 5.3 5 7 5 C7 5.66 7 6.32 7 7 C5.35 7 3.7 7 2 7 C2 7.99 2 8.98 2 10 C3.98 10 5.96 10 8 10 C8 10.33 8 10.66 8 11 C5.36 11 2.72 11 0 11 C0 7.37 0 3.74 0 0 Z " fill="#000000" transform="translate(309,279)"/>
<path d="M0 0 C2.64 0 5.28 0 8 0 C8 0.66 8 1.32 8 2 C6.02 2 4.04 2 2 2 C2 2.99 2 3.98 2 5 C3.65 5 5.3 5 7 5 C7 5.66 7 6.32 7 7 C5.35 7 3.7 7 2 7 C2 7.99 2 8.98 2 10 C3.98 10 5.96 10 8 10 C8 10.33 8 10.66 8 11 C5.36 11 2.72 11 0 11 C0 7.37 0 3.74 0 0 Z " fill="#000000" transform="translate(261,279)"/>
<path d="M0 0 C0.33 0.66 0.66 1.32 1 2 C-1.31 2.33 -3.62 2.66 -6 3 C-6 4.32 -6 5.64 -6 7 C-3 8.33333333 -3 8.33333333 0 7 C0 7.99 0 8.98 0 10 C-2.97788882 10.90991047 -4.43497994 11.25960381 -7.3125 9.9375 C-9 8 -9 8 -9.5 5 C-9 2 -9 2 -7.3125 0.0625 C-4.4009332 -1.27524691 -2.99036444 -1.05066859 0 0 Z " fill="#000000" transform="translate(257,280)"/>
<path d="M0 0 C0.66 0 1.32 0 2 0 C2.66 2.31 3.32 4.62 4 7 C4.66 7 5.32 7 6 7 C6.66 4.69 7.32 2.38 8 0 C8.66 0 9.32 0 10 0 C9.48964169 4.3890815 8.47785723 7.33708062 6 11 C5.01 10.67 4.02 10.34 3 10 C1.25327015 6.5065403 0 3.93154432 0 0 Z " fill="#000000" transform="translate(296,279)"/>
<path d="M0 0 C2.64 0 5.28 0 8 0 C8 0.66 8 1.32 8 2 C6.02 2 4.04 2 2 2 C2 2.99 2 3.98 2 5 C3.65 5 5.3 5 7 5 C7 5.66 7 6.32 7 7 C5.35 7 3.7 7 2 7 C2 8.32 2 9.64 2 11 C1.34 11 0.68 11 0 11 C0 7.37 0 3.74 0 0 Z " fill="#000000" transform="translate(193,279)"/>
<path d="M0 0 C2.97 0 5.94 0 9 0 C9 0.66 9 1.32 9 2 C8.01 2 7.02 2 6 2 C6 4.97 6 7.94 6 11 C5.34 11 4.68 11 4 11 C4 8.03 4 5.06 4 2 C2.68 2 1.36 2 0 2 C0 1.34 0 0.68 0 0 Z " fill="#000000" transform="translate(369,279)"/>
<path d="M0 0 C0.66 0 1.32 0 2 0 C2 4.62 2 9.24 2 14 C1.34 14 0.68 14 0 14 C0 9.38 0 4.76 0 0 Z " fill="#000000" transform="translate(344,260)"/>
<path d="M0 0 C0.66 0 1.32 0 2 0 C2 4.62 2 9.24 2 14 C1.34 14 0.68 14 0 14 C0 9.38 0 4.76 0 0 Z " fill="#000000" transform="translate(326,260)"/>
<path d="M0 0 C0.66 0 1.32 0 2 0 C2 3.63 2 7.26 2 11 C1.34 11 0.68 11 0 11 C0 7.37 0 3.74 0 0 Z " fill="#000000" transform="translate(278,279)"/>
<path d="M0 0 C0.66 0 1.32 0 2 0 C2 3.63 2 7.26 2 11 C1.34 11 0.68 11 0 11 C0 7.37 0 3.74 0 0 Z " fill="#000000" transform="translate(204,279)"/>
</svg>
